<svg width="73" height="25" viewBox="0 0 73 25" fill="none" xmlns="http://www.w3.org/2000/svg">
<rect y="6" width="12" height="3" rx="1" fill="white"/>
<rect y="11" width="8" height="3" rx="1" fill="white"/>
<rect y="16" width="4" height="3" rx="1" fill="white"/>
<path d="M32.11 6.134V18H29.73V10.282L26.551 18H24.749L21.553 10.282V18H19.173V6.134H21.876L25.65 14.957L29.424 6.134H32.11ZM36.843 8.055V11.03H40.838V12.917H36.843V16.062H41.348V18H34.463V6.117H41.348V8.055H36.843ZM56.4479 6.134V18H54.0679V10.282L50.8889 18H49.0869L45.8909 10.282V18H43.5109V6.134H46.2139L49.9879 14.957L53.7619 6.134H56.4479ZM64.3089 18.119C63.1983 18.119 62.1783 17.8583 61.2489 17.337C60.3196 16.8157 59.5829 16.096 59.0389 15.178C58.4949 14.2487 58.2229 13.2003 58.2229 12.033C58.2229 10.877 58.4949 9.84 59.0389 8.922C59.5829 7.99267 60.3196 7.26733 61.2489 6.746C62.1783 6.22467 63.1983 5.964 64.3089 5.964C65.4309 5.964 66.4509 6.22467 67.3689 6.746C68.2983 7.26733 69.0293 7.99267 69.5619 8.922C70.1059 9.84 70.3779 10.877 70.3779 12.033C70.3779 13.2003 70.1059 14.2487 69.5619 15.178C69.0293 16.096 68.2983 16.8157 67.3689 17.337C66.4396 17.8583 65.4196 18.119 64.3089 18.119ZM64.3089 15.994C65.0229 15.994 65.6519 15.8353 66.1959 15.518C66.7399 15.1893 67.1649 14.7247 67.4709 14.124C67.7769 13.5233 67.9299 12.8263 67.9299 12.033C67.9299 11.2397 67.7769 10.5483 67.4709 9.959C67.1649 9.35833 66.7399 8.89933 66.1959 8.582C65.6519 8.26467 65.0229 8.106 64.3089 8.106C63.5949 8.106 62.9603 8.26467 62.4049 8.582C61.8609 8.89933 61.4359 9.35833 61.1299 9.959C60.8239 10.5483 60.6709 11.2397 60.6709 12.033C60.6709 12.8263 60.8239 13.5233 61.1299 14.124C61.4359 14.7247 61.8609 15.1893 62.4049 15.518C62.9603 15.8353 63.5949 15.994 64.3089 15.994Z" fill="white"/>
</svg>
